# This file uses centimeters as units for non-parametric coordinates.

mtllib branch1.mtl
g default
v -0.049722 -0.020009 -0.094443
v -0.040032 -0.020009 0.074514
v 0.118707 -0.020009 0.028963
v -0.040032 0.650932 -0.064159
v -0.040032 0.650932 0.074514
v 0.106692 0.650932 0.005178
v 0.000000 -0.020009 0.005178
v -0.025749 0.866463 -0.013748
v -0.051961 0.982040 0.094503
v 0.078887 0.935938 0.062512
v 0.001674 1.233750 -0.089871
v -0.013906 1.302448 -0.025527
v 0.063869 1.275046 -0.044543
v 0.020785 1.564141 -0.058901
v 0.010385 1.610023 -0.015948
v 0.031158 1.588636 -0.034501
v 0.062305 1.591720 -0.028646
v -0.041972 1.005073 0.062997
v -0.018551 0.962871 -0.005618
v 0.074945 1.028171 0.034411
v 0.031096 1.091344 0.238849
v 0.108948 1.063915 0.219815
v 0.106602 1.116875 0.203095
v 0.037039 1.141384 0.220103
v 0.105538 1.321689 0.356798
v 0.149654 1.306145 0.346012
v 0.148325 1.336156 0.336538
v 0.108906 1.350045 0.346176
v 0.158771 1.000141 -0.041189
v 0.071575 0.959863 -0.062947
v 0.102281 1.015756 -0.125096
v 0.119658 1.053613 -0.072202
v 0.236897 1.020650 -0.119658
v 0.197466 0.994469 -0.166668
v 0.200178 1.030800 -0.174197
v 0.211473 1.055407 -0.139817
vt 0.421875 0.020934
vt 0.421875 0.291566
vt 0.656250 0.156250
vt 0.375000 0.312500
vt 0.458333 0.312500
vt 0.541667 0.312500
vt 0.625000 0.312500
vt 0.375000 0.688440
vt 0.458333 0.688440
vt 0.541667 0.688440
vt 0.625000 0.688440
vt 0.421875 0.708434
vt 0.421875 0.979066
vt 0.656250 0.843750
vt 0.500000 0.150000
vt 0.500000 0.837500
vt 0.421875 0.979066
vt 0.421875 0.708434
vt 0.656250 0.843750
vt 0.421875 0.979066
vt 0.421875 0.708434
vt 0.656250 0.843750
vt 0.421875 0.979066
vt 0.421875 0.708434
vt 0.656250 0.843750
vt 0.421875 0.708434
vt 0.421875 0.979066
vt 0.656250 0.843750
vt 0.421875 0.708434
vt 0.656250 0.843750
vt 0.656250 0.843750
vt 0.421875 0.708434
vt 0.421875 0.708434
vt 0.656250 0.843750
vt 0.656250 0.843750
vt 0.421875 0.708434
vt 0.656250 0.843750
vt 0.421875 0.979066
vt 0.421875 0.979066
vt 0.656250 0.843750
vt 0.656250 0.843750
vt 0.421875 0.979066
vt 0.421875 0.979066
vt 0.656250 0.843750
vn -0.333140 -0.014508 -0.942766
vn -0.521735 -0.006339 0.853084
vn -0.489840 -0.008601 0.871770
vn -0.350343 0.046830 -0.935450
vn 0.998848 -0.001889 0.047942
vn 0.991480 0.053663 -0.118694
vn 0.000000 -1.000000 0.000000
vn -0.200683 0.110598 -0.973393
vn -0.394640 0.014372 0.918724
vn 0.066951 0.689933 -0.720771
vn 0.876251 -0.008762 0.481776
vn -0.463607 -0.232679 0.854944
vn -0.422438 0.039386 -0.905536
vn 0.805397 -0.325779 0.495181
vn -0.744759 0.659086 0.104593
vn -0.666012 -0.001322 -0.745940
vn -0.217441 -0.356588 0.908606
vn 0.381424 -0.428560 0.819055
vn 0.579956 0.387406 -0.716636
vn -0.528318 0.620668 -0.579354
vn 0.696876 -0.517368 0.496684
vn 0.158329 -0.882737 -0.442388
vn -0.319755 0.382189 -0.867000
vn 0.298748 0.953519 -0.039383
vn -0.088402 -0.114360 -0.989498
vn -0.744585 0.194347 0.638609
vn 0.999765 -0.016805 -0.013702
vn 0.582240 0.796549 0.162808
vn 0.407733 -0.645835 0.645485
vn -0.400021 -0.516243 0.757282
vn 0.532800 0.545289 -0.647135
vn -0.495890 0.742349 -0.450568
vn 0.221480 -0.840228 -0.494937
vn 0.797783 -0.458239 0.391867
vn -0.634195 0.400344 -0.661454
vn -0.210814 0.973275 0.091067
s 1
g pCylinder1 group6 group4
usemtl initialShadingGroup
f 1/4/1 2/5/2 5/9/3 4/8/4
f 2/5/2 3/6/5 6/10/6 5/9/3
f 3/6/5 1/7/1 4/11/4 6/10/6
f 2/2/2 1/1/1 7/15/7
f 3/3/5 2/2/2 7/15/7
f 1/1/1 3/3/5 7/15/7
f 14/23/8 15/24/9 16/16/10
f 15/24/9 17/25/11 16/16/10
f 17/25/11 14/23/8 16/16/10
f 4/13/4 5/12/3 9/18/12 8/17/13
f 5/12/3 6/14/6 10/19/14 9/18/12
f 6/14/6 4/13/4 8/17/13 10/19/14
f 8/17/13 9/18/12 18/26/15 19/27/16
f 25/33/17 26/34/18 27/35/19 28/36/20
f 33/41/21 34/42/22 35/43/23 36/44/24
f 11/20/25 12/21/26 15/24/9 14/23/8
f 12/21/26 13/22/27 17/25/11 15/24/9
f 13/22/27 11/20/25 14/23/8 17/25/11
f 19/27/16 18/26/15 12/21/26 11/20/25
f 20/28/28 19/27/16 11/20/25 13/22/27
f 18/26/15 20/28/28 13/22/27 12/21/26
f 9/18/12 10/19/14 22/30/29 21/29/30
f 10/19/14 20/28/28 23/31/31 22/30/29
f 20/28/28 18/26/15 24/32/32 23/31/31
f 18/26/15 9/18/12 21/29/30 24/32/32
f 21/29/30 22/30/29 26/34/18 25/33/17
f 22/30/29 23/31/31 27/35/19 26/34/18
f 23/31/31 24/32/32 28/36/20 27/35/19
f 24/32/32 21/29/30 25/33/17 28/36/20
f 10/19/14 8/17/13 30/38/33 29/37/34
f 8/17/13 19/27/16 31/39/35 30/38/33
f 19/27/16 20/28/28 32/40/36 31/39/35
f 20/28/28 10/19/14 29/37/34 32/40/36
f 29/37/34 30/38/33 34/42/22 33/41/21
f 30/38/33 31/39/35 35/43/23 34/42/22
f 31/39/35 32/40/36 36/44/24 35/43/23
f 32/40/36 29/37/34 33/41/21 36/44/24
