# This file uses centimeters as units for non-parametric coordinates.

mtllib bridgeface.mtl
g default
v -1.250000 0.939874 0.488105
v -0.892857 0.939874 0.488105
v -0.892857 0.939874 -0.488105
v -1.250000 0.939874 -0.488105
v 0.892857 0.939874 0.488105
v 1.250000 0.939874 0.488105
v 1.250000 0.939874 -0.488105
v 0.892857 0.939874 -0.488105
v 0.535714 0.939874 0.488105
v 0.535714 0.939874 -0.488105
v 0.178571 0.939874 0.488105
v 0.178571 0.939874 -0.488105
v -0.178571 0.939874 0.488105
v -0.178571 0.939874 -0.488105
v -0.535714 0.939874 0.488105
v -0.535714 0.939874 -0.488105
vt 0.458333 0.250000
vt 0.541667 0.250000
vt 0.541667 0.285714
vt 0.458333 0.285714
vt 0.458333 0.464286
vt 0.541667 0.464286
vt 0.541667 0.500000
vt 0.458333 0.500000
vt 0.458333 0.428571
vt 0.541667 0.428571
vt 0.458333 0.392857
vt 0.541667 0.392857
vt 0.458333 0.357143
vt 0.541667 0.357143
vt 0.458333 0.321429
vt 0.541667 0.321429
vn 0.000000 1.000000 0.000000
vn 0.000000 1.000000 0.000000
vn 0.000000 1.000000 0.000000
vn 0.000000 1.000000 0.000000
vn 0.000000 1.000000 0.000000
vn 0.000000 1.000000 0.000000
vn 0.000000 1.000000 0.000000
vn 0.000000 1.000000 0.000000
vn 0.000000 1.000000 0.000000
vn 0.000000 1.000000 0.000000
vn 0.000000 1.000000 0.000000
vn 0.000000 1.000000 0.000000
vn 0.000000 1.000000 0.000000
vn 0.000000 1.000000 0.000000
vn 0.000000 1.000000 0.000000
vn 0.000000 1.000000 0.000000
vn 0.000000 1.000000 0.000000
vn 0.000000 1.000000 0.000000
vn 0.000000 1.000000 0.000000
vn 0.000000 1.000000 0.000000
vn 0.000000 1.000000 0.000000
vn 0.000000 1.000000 0.000000
vn 0.000000 1.000000 0.000000
vn 0.000000 1.000000 0.000000
vn 0.000000 1.000000 0.000000
vn 0.000000 1.000000 0.000000
vn 0.000000 1.000000 0.000000
vn 0.000000 1.000000 0.000000
s off
g polySurface6 bridge:pCube14
usemtl bridge:initialShadingGroup
f 4/1/1 1/2/2 2/3/3 3/4/4
f 8/5/5 5/6/6 6/7/7 7/8/8
f 10/9/9 9/10/10 5/6/11 8/5/12
f 12/11/13 11/12/14 9/10/15 10/9/16
f 14/13/17 13/14/18 11/12/19 12/11/20
f 16/15/21 15/16/22 13/14/23 14/13/24
f 3/4/25 2/3/26 15/16/27 16/15/28
