# This file uses centimeters as units for non-parametric coordinates.

mtllib leaves1.mtl
g default
v 0.046493 1.230072 0.036702
v -0.167495 1.290103 0.113880
v -0.140788 1.443688 0.290088
v 0.089705 1.478577 0.321813
v 0.291093 1.399490 0.091025
v 0.066978 1.279739 -0.166754
v -0.279261 1.376872 -0.041878
v -0.233969 1.669909 0.167542
v 0.136898 1.681829 0.294566
v 0.324179 1.468213 0.041179
v -0.022131 1.443173 -0.296276
v -0.273929 1.616291 -0.122168
v -0.137848 1.861433 0.190569
v 0.131800 1.840796 0.156782
v 0.319081 1.627180 -0.096605
v 0.033146 1.646252 -0.324021
v -0.180842 1.706284 -0.246843
v -0.154135 1.859868 -0.070634
v 0.047394 1.939289 0.013541
v 0.192105 1.762736 -0.195511
v 0.008249 1.308676 0.228116
v -0.015270 1.782722 -0.264090
vt 0.000000 0.200000
vt 0.200000 0.200000
vt 0.400000 0.200000
vt 0.600000 0.200000
vt 0.800000 0.200000
vt 1.000000 0.200000
vt 0.000000 0.400000
vt 0.200000 0.400000
vt 0.400000 0.400000
vt 0.600000 0.400000
vt 0.800000 0.400000
vt 1.000000 0.400000
vt 0.000000 0.600000
vt 0.200000 0.600000
vt 0.400000 0.600000
vt 0.600000 0.600000
vt 0.800000 0.600000
vt 1.000000 0.600000
vt 0.000000 0.800000
vt 0.200000 0.800000
vt 0.400000 0.800000
vt 0.600000 0.800000
vt 0.800000 0.800000
vt 1.000000 0.800000
vt 0.100000 0.000000
vt 0.300000 0.000000
vt 0.500000 0.000000
vt 0.700000 0.000000
vt 0.900000 0.000000
vt 0.100000 1.000000
vt 0.300000 1.000000
vt 0.500000 1.000000
vt 0.700000 1.000000
vt 0.900000 1.000000
vn -0.345401 -0.903080 -0.255235
vn -0.345401 -0.903080 -0.255235
vn -0.345401 -0.903080 -0.255235
vn -0.345401 -0.903080 -0.255235
vn -0.885695 -0.213280 0.412378
vn -0.885695 -0.213280 0.412378
vn -0.885695 -0.213280 0.412378
vn -0.885695 -0.213280 0.412378
vn -0.265299 0.292077 0.918862
vn -0.265299 0.292077 0.918862
vn -0.265299 0.292077 0.918862
vn -0.265299 0.292077 0.918862
vn 0.765844 -0.044213 0.641505
vn 0.765844 -0.044213 0.641505
vn 0.765844 -0.044213 0.641505
vn 0.765844 -0.044213 0.641505
vn 0.638287 -0.740311 -0.211019
vn 0.638287 -0.740311 -0.211019
vn 0.638287 -0.740311 -0.211019
vn 0.638287 -0.740311 -0.211019
vn -0.555531 -0.472036 -0.684520
vn -0.555531 -0.472036 -0.684520
vn -0.555531 -0.472036 -0.684520
vn -0.555531 -0.472036 -0.684520
vn -0.966819 0.239443 0.089039
vn -0.966819 0.239443 0.089039
vn -0.966819 0.239443 0.089039
vn -0.966819 0.239443 0.089039
vn -0.130996 0.339044 0.931606
vn -0.130996 0.339044 0.931606
vn -0.130996 0.339044 0.931606
vn -0.130996 0.339044 0.931606
vn 0.870272 0.338257 0.358062
vn 0.870272 0.338257 0.358062
vn 0.870272 0.338257 0.358062
vn 0.870272 0.338257 0.358062
vn 0.666443 -0.350736 -0.657904
vn 0.666443 -0.350736 -0.657904
vn 0.666443 -0.350736 -0.657904
vn 0.666443 -0.350736 -0.657904
vn -0.530655 -0.163857 -0.831599
vn -0.530655 -0.163857 -0.831598
vn -0.530655 -0.163857 -0.831598
vn -0.530655 -0.163857 -0.831598
vn -0.888724 0.452566 -0.073170
vn -0.888724 0.452566 -0.073170
vn -0.888724 0.452566 -0.073170
vn -0.888724 0.452566 -0.073170
vn -0.147231 0.952932 0.265036
vn -0.147231 0.952932 0.265036
vn -0.147231 0.952932 0.265036
vn -0.147231 0.952932 0.265036
vn 0.751046 0.660013 -0.017681
vn 0.751046 0.660013 -0.017681
vn 0.751046 0.660013 -0.017681
vn 0.751046 0.660013 -0.017681
vn 0.607584 -0.162156 -0.777526
vn 0.607584 -0.162156 -0.777526
vn 0.607584 -0.162156 -0.777526
vn 0.607584 -0.162156 -0.777526
vn -0.132143 -0.925929 0.353827
vn -0.132143 -0.925929 0.353827
vn -0.132143 -0.925929 0.353827
vn -0.347688 -0.680075 0.645454
vn -0.347688 -0.680075 0.645454
vn -0.347688 -0.680075 0.645454
vn -0.051672 -0.463157 0.884769
vn -0.051672 -0.463157 0.884769
vn -0.051672 -0.463157 0.884769
vn 0.497663 -0.589486 0.636269
vn 0.497663 -0.589486 0.636269
vn 0.497663 -0.589486 0.636269
vn 0.454139 -0.788599 0.414570
vn 0.454139 -0.788599 0.414570
vn 0.454139 -0.788599 0.414570
vn -0.241852 0.316938 -0.917092
vn -0.241852 0.316938 -0.917092
vn -0.241852 0.316938 -0.917092
vn -0.392650 0.721952 -0.569746
vn -0.392650 0.721952 -0.569746
vn -0.392650 0.721952 -0.569746
vn -0.153194 0.875152 -0.458955
vn -0.153194 0.875152 -0.458955
vn -0.153194 0.875152 -0.458955
vn 0.250093 0.818118 -0.517819
vn 0.250093 0.818118 -0.517819
vn 0.250093 0.818118 -0.517819
vn 0.317357 0.473430 -0.821674
vn 0.317357 0.473430 -0.821674
vn 0.317357 0.473430 -0.821674
s off
g pSphere1 group6 group4
usemtl initialShadingGroup
f 1/1/1 2/2/2 7/8/3 6/7/4
f 2/2/5 3/3/6 8/9/7 7/8/8
f 3/3/9 4/4/10 9/10/11 8/9/12
f 4/4/13 5/5/14 10/11/15 9/10/16
f 5/5/17 1/6/18 6/12/19 10/11/20
f 6/7/21 7/8/22 12/14/23 11/13/24
f 7/8/25 8/9/26 13/15/27 12/14/28
f 8/9/29 9/10/30 14/16/31 13/15/32
f 9/10/33 10/11/34 15/17/35 14/16/36
f 10/11/37 6/12/38 11/18/39 15/17/40
f 11/13/41 12/14/42 17/20/43 16/19/44
f 12/14/45 13/15/46 18/21/47 17/20/48
f 13/15/49 14/16/50 19/22/51 18/21/52
f 14/16/53 15/17/54 20/23/55 19/22/56
f 15/17/57 11/18/58 16/24/59 20/23/60
f 2/2/61 1/1/62 21/25/63
f 3/3/64 2/2/65 21/26/66
f 4/4/67 3/3/68 21/27/69
f 5/5/70 4/4/71 21/28/72
f 1/6/73 5/5/74 21/29/75
f 16/19/76 17/20/77 22/30/78
f 17/20/79 18/21/80 22/31/81
f 18/21/82 19/22/83 22/32/84
f 19/22/85 20/23/86 22/33/87
f 20/23/88 16/24/89 22/34/90
g default
v 0.238857 1.107747 0.405240
v 0.245226 1.147833 0.221760
v 0.105193 1.250389 0.188910
v 0.054133 1.273686 0.352087
v 0.166634 1.220876 0.572206
v 0.254556 1.140912 0.392626
v 0.395452 1.205773 0.184746
v 0.224961 1.401447 0.155858
v 0.060390 1.409407 0.395619
v 0.194055 1.266765 0.611948
v 0.473429 1.250045 0.575603
v 0.454009 1.365644 0.212827
v 0.178874 1.529336 0.220968
v 0.123298 1.515556 0.433132
v 0.298816 1.372915 0.649461
v 0.513126 1.385651 0.503451
v 0.519495 1.425736 0.319972
v 0.379462 1.528292 0.287122
v 0.255939 1.581325 0.412863
v 0.369157 1.463432 0.583997
v 0.106915 1.160235 0.319164
v 0.482748 1.531127 0.449197
vt 0.000000 0.200000
vt 0.200000 0.200000
vt 0.400000 0.200000
vt 0.600000 0.200000
vt 0.800000 0.200000
vt 1.000000 0.200000
vt 0.000000 0.400000
vt 0.200000 0.400000
vt 0.400000 0.400000
vt 0.600000 0.400000
vt 0.800000 0.400000
vt 1.000000 0.400000
vt 0.000000 0.600000
vt 0.200000 0.600000
vt 0.400000 0.600000
vt 0.600000 0.600000
vt 0.800000 0.600000
vt 1.000000 0.600000
vt 0.000000 0.800000
vt 0.200000 0.800000
vt 0.400000 0.800000
vt 0.600000 0.800000
vt 0.800000 0.800000
vt 1.000000 0.800000
vt 0.100000 0.000000
vt 0.300000 0.000000
vt 0.500000 0.000000
vt 0.700000 0.000000
vt 0.900000 0.000000
vt 0.100000 1.000000
vt 0.300000 1.000000
vt 0.500000 1.000000
vt 0.700000 1.000000
vt 0.900000 1.000000
vn 0.466260 -0.882528 -0.061207
vn 0.466260 -0.882528 -0.061207
vn 0.466260 -0.882528 -0.061207
vn 0.466260 -0.882528 -0.061207
vn -0.053064 -0.255117 -0.965453
vn -0.053064 -0.255117 -0.965453
vn -0.053064 -0.255117 -0.965453
vn -0.053064 -0.255117 -0.965453
vn -0.806408 0.371202 -0.460343
vn -0.806408 0.371202 -0.460343
vn -0.806408 0.371202 -0.460343
vn -0.806408 0.371202 -0.460343
vn -0.879812 -0.053414 0.472311
vn -0.879812 -0.053414 0.472311
vn -0.879812 -0.053414 0.472311
vn -0.879812 -0.053414 0.472311
vn 0.638001 -0.537290 0.551611
vn 0.638001 -0.537290 0.551611
vn 0.638001 -0.537290 0.551611
vn 0.638001 -0.537290 0.551611
vn 0.719803 -0.691098 -0.065321
vn 0.719803 -0.691098 -0.065321
vn 0.719803 -0.691098 -0.065321
vn 0.719803 -0.691098 -0.065321
vn 0.273125 0.285649 -0.918590
vn 0.273125 0.285649 -0.918590
vn 0.273125 0.285649 -0.918590
vn 0.273125 0.285649 -0.918590
vn -0.872264 0.247606 -0.421719
vn -0.872264 0.247606 -0.421719
vn -0.872264 0.247606 -0.421719
vn -0.872264 0.247606 -0.421719
vn -0.675176 0.294176 0.676460
vn -0.675176 0.294176 0.676460
vn -0.675176 0.294176 0.676460
vn -0.675176 0.294176 0.676460
vn 0.042020 -0.745007 0.665732
vn 0.042020 -0.745007 0.665732
vn 0.042020 -0.745007 0.665732
vn 0.042020 -0.745007 0.665732
vn 0.881892 -0.447425 -0.148588
vn 0.881892 -0.447425 -0.148588
vn 0.881892 -0.447425 -0.148588
vn 0.881892 -0.447425 -0.148588
vn 0.380708 0.522867 -0.762674
vn 0.380708 0.522867 -0.762674
vn 0.380708 0.522867 -0.762674
vn 0.380708 0.522867 -0.762674
vn -0.160642 0.967055 -0.197482
vn -0.160642 0.967055 -0.197482
vn -0.160642 0.967055 -0.197482
vn -0.160642 0.967055 -0.197482
vn -0.259095 0.700997 0.664434
vn -0.259095 0.700997 0.664434
vn -0.259095 0.700997 0.664434
vn -0.259095 0.700997 0.664434
vn 0.538371 0.231198 0.810373
vn 0.538371 0.231198 0.810373
vn 0.538371 0.231198 0.810373
vn 0.538371 0.231198 0.810373
vn -0.236519 -0.947492 -0.215214
vn -0.236519 -0.947492 -0.215214
vn -0.236519 -0.947492 -0.215214
vn -0.426699 -0.746275 -0.510883
vn -0.426699 -0.746275 -0.510883
vn -0.426699 -0.746275 -0.510883
vn -0.905837 -0.353843 -0.232928
vn -0.905837 -0.353843 -0.232928
vn -0.905837 -0.353843 -0.232928
vn -0.825200 -0.473354 0.308188
vn -0.825200 -0.473354 0.308188
vn -0.825201 -0.473354 0.308188
vn -0.520354 -0.794444 0.313193
vn -0.520354 -0.794444 0.313193
vn -0.520354 -0.794444 0.313193
vn 0.968576 0.233847 0.084710
vn 0.968576 0.233847 0.084710
vn 0.968576 0.233847 0.084710
vn 0.601285 0.694385 -0.395329
vn 0.601285 0.694386 -0.395329
vn 0.601285 0.694386 -0.395329
vn 0.238701 0.956302 -0.168846
vn 0.238701 0.956302 -0.168846
vn 0.238701 0.956302 -0.168846
vn 0.105519 0.850152 0.515856
vn 0.105519 0.850152 0.515856
vn 0.105519 0.850152 0.515856
vn 0.600458 0.386468 0.700066
vn 0.600458 0.386468 0.700066
vn 0.600458 0.386468 0.700066
s off
g group6 group4 pSphere2
usemtl initialShadingGroup
f 23/35/91 24/36/92 29/42/93 28/41/94
f 24/36/95 25/37/96 30/43/97 29/42/98
f 25/37/99 26/38/100 31/44/101 30/43/102
f 26/38/103 27/39/104 32/45/105 31/44/106
f 27/39/107 23/40/108 28/46/109 32/45/110
f 28/41/111 29/42/112 34/48/113 33/47/114
f 29/42/115 30/43/116 35/49/117 34/48/118
f 30/43/119 31/44/120 36/50/121 35/49/122
f 31/44/123 32/45/124 37/51/125 36/50/126
f 32/45/127 28/46/128 33/52/129 37/51/130
f 33/47/131 34/48/132 39/54/133 38/53/134
f 34/48/135 35/49/136 40/55/137 39/54/138
f 35/49/139 36/50/140 41/56/141 40/55/142
f 36/50/143 37/51/144 42/57/145 41/56/146
f 37/51/147 33/52/148 38/58/149 42/57/150
f 24/36/151 23/35/152 43/59/153
f 25/37/154 24/36/155 43/60/156
f 26/38/157 25/37/158 43/61/159
f 27/39/160 26/38/161 43/62/162
f 23/40/163 27/39/164 43/63/165
f 38/53/166 39/54/167 44/64/168
f 39/54/169 40/55/170 44/65/171
f 40/55/172 41/56/173 44/66/174
f 41/56/175 42/57/176 44/67/177
f 42/57/178 38/58/179 44/68/180
g default
v -0.042299 1.133527 -0.003619
v -0.015784 0.995846 -0.099370
v -0.045620 1.040411 -0.265626
v -0.056866 1.187877 -0.257279
v 0.004170 1.301621 -0.093533
v -0.002960 1.120559 -0.035640
v 0.150873 0.909755 -0.114945
v 0.174003 0.979342 -0.386173
v 0.063567 1.231442 -0.379934
v 0.066888 1.324558 -0.117927
v 0.275672 1.176886 -0.009736
v 0.332460 0.921796 -0.247883
v 0.247178 1.060684 -0.513307
v 0.204707 1.243527 -0.453509
v 0.241737 1.318887 -0.176154
v 0.415460 1.118679 -0.156059
v 0.441975 0.980998 -0.251810
v 0.412139 1.025563 -0.418066
v 0.364778 1.178339 -0.478306
v 0.369237 1.248335 -0.263139
v -0.110591 1.129472 -0.132395
v 0.508157 1.104715 -0.332577
vt 0.000000 0.200000
vt 0.200000 0.200000
vt 0.400000 0.200000
vt 0.600000 0.200000
vt 0.800000 0.200000
vt 1.000000 0.200000
vt 0.000000 0.400000
vt 0.200000 0.400000
vt 0.400000 0.400000
vt 0.600000 0.400000
vt 0.800000 0.400000
vt 1.000000 0.400000
vt 0.000000 0.600000
vt 0.200000 0.600000
vt 0.400000 0.600000
vt 0.600000 0.600000
vt 0.800000 0.600000
vt 1.000000 0.600000
vt 0.000000 0.800000
vt 0.200000 0.800000
vt 0.400000 0.800000
vt 0.600000 0.800000
vt 0.800000 0.800000
vt 1.000000 0.800000
vt 0.100000 0.000000
vt 0.300000 0.000000
vt 0.500000 0.000000
vt 0.700000 0.000000
vt 0.900000 0.000000
vt 0.100000 1.000000
vt 0.300000 1.000000
vt 0.500000 1.000000
vt 0.700000 1.000000
vt 0.900000 1.000000
vn -0.012459 -0.453988 0.890921
vn -0.012459 -0.453988 0.890921
vn -0.012459 -0.453988 0.890921
vn -0.012459 -0.453988 0.890921
vn -0.414844 -0.881948 -0.223766
vn -0.414844 -0.881948 -0.223766
vn -0.414844 -0.881948 -0.223766
vn -0.414844 -0.881948 -0.223766
vn -0.580367 -0.147507 -0.800884
vn -0.580367 -0.147507 -0.800884
vn -0.580367 -0.147507 -0.800884
vn -0.580367 -0.147507 -0.800884
vn -0.531195 0.790850 -0.303953
vn -0.531195 0.790850 -0.303953
vn -0.531195 0.790850 -0.303953
vn -0.531195 0.790850 -0.303953
vn 0.448358 0.256157 0.856364
vn 0.448358 0.256157 0.856364
vn 0.448358 0.256157 0.856364
vn 0.448358 0.256157 0.856364
vn 0.265359 -0.458101 0.848368
vn 0.265359 -0.458101 0.848368
vn 0.265359 -0.458101 0.848368
vn 0.265359 -0.458101 0.848368
vn -0.025043 -0.932819 -0.359475
vn -0.025043 -0.932819 -0.359475
vn -0.025043 -0.932819 -0.359475
vn -0.025043 -0.932819 -0.359475
vn -0.651755 -0.115318 -0.749611
vn -0.651755 -0.115318 -0.749611
vn -0.651755 -0.115318 -0.749611
vn -0.651755 -0.115318 -0.749611
vn -0.138469 0.948224 -0.285828
vn -0.138469 0.948224 -0.285828
vn -0.138469 0.948224 -0.285828
vn -0.138469 0.948224 -0.285828
vn -0.007403 0.584152 0.811610
vn -0.007403 0.584152 0.811610
vn -0.007403 0.584152 0.811610
vn -0.007403 0.584152 0.811610
vn 0.440767 -0.525288 0.727871
vn 0.440767 -0.525288 0.727871
vn 0.440767 -0.525288 0.727871
vn 0.440767 -0.525288 0.727871
vn 0.220061 -0.875277 -0.430654
vn 0.220061 -0.875277 -0.430654
vn 0.220061 -0.875277 -0.430654
vn 0.220061 -0.875277 -0.430654
vn 0.229090 0.060037 -0.971552
vn 0.229090 0.060037 -0.971552
vn 0.229090 0.060037 -0.971552
vn 0.229090 0.060037 -0.971552
vn 0.312613 0.903563 -0.292997
vn 0.312614 0.903563 -0.292997
vn 0.312614 0.903563 -0.292997
vn 0.312614 0.903563 -0.292997
vn 0.664289 0.618538 0.419679
vn 0.664289 0.618538 0.419680
vn 0.664289 0.618538 0.419680
vn 0.664289 0.618538 0.419680
vn -0.783221 -0.449540 0.429509
vn -0.783221 -0.449540 0.429509
vn -0.783221 -0.449540 0.429509
vn -0.814450 -0.580159 -0.009349
vn -0.814450 -0.580159 -0.009349
vn -0.814450 -0.580159 -0.009349
vn -0.909641 -0.046003 -0.412840
vn -0.909641 -0.046003 -0.412840
vn -0.909641 -0.046003 -0.412840
vn -0.819588 0.566187 -0.087796
vn -0.819588 0.566187 -0.087796
vn -0.819588 0.566187 -0.087796
vn -0.798963 0.440094 0.409849
vn -0.798963 0.440094 0.409849
vn -0.798963 0.440094 0.409849
vn 0.868899 -0.158728 0.468849
vn 0.868899 -0.158728 0.468849
vn 0.868899 -0.158728 0.468849
vn 0.749974 -0.592794 -0.293486
vn 0.749974 -0.592794 -0.293486
vn 0.749974 -0.592794 -0.293486
vn 0.693934 -0.067537 -0.716864
vn 0.693934 -0.067537 -0.716864
vn 0.693934 -0.067537 -0.716864
vn 0.632041 0.732974 -0.251542
vn 0.632041 0.732974 -0.251542
vn 0.632041 0.732974 -0.251542
vn 0.752120 0.557881 0.350834
vn 0.752120 0.557881 0.350834
vn 0.752120 0.557881 0.350834
s off
g group6 group4 pSphere3
usemtl initialShadingGroup
f 45/69/181 46/70/182 51/76/183 50/75/184
f 46/70/185 47/71/186 52/77/187 51/76/188
f 47/71/189 48/72/190 53/78/191 52/77/192
f 48/72/193 49/73/194 54/79/195 53/78/196
f 49/73/197 45/74/198 50/80/199 54/79/200
f 50/75/201 51/76/202 56/82/203 55/81/204
f 51/76/205 52/77/206 57/83/207 56/82/208
f 52/77/209 53/78/210 58/84/211 57/83/212
f 53/78/213 54/79/214 59/85/215 58/84/216
f 54/79/217 50/80/218 55/86/219 59/85/220
f 55/81/221 56/82/222 61/88/223 60/87/224
f 56/82/225 57/83/226 62/89/227 61/88/228
f 57/83/229 58/84/230 63/90/231 62/89/232
f 58/84/233 59/85/234 64/91/235 63/90/236
f 59/85/237 55/86/238 60/92/239 64/91/240
f 46/70/241 45/69/242 65/93/243
f 47/71/244 46/70/245 65/94/246
f 48/72/247 47/71/248 65/95/249
f 49/73/250 48/72/251 65/96/252
f 45/74/253 49/73/254 65/97/255
f 60/87/256 61/88/257 66/98/258
f 61/88/259 62/89/260 66/99/261
f 62/89/262 63/90/263 66/100/264
f 63/90/265 64/91/266 66/101/267
f 64/91/268 60/92/269 66/102/270
