# This file uses centimeters as units for non-parametric coordinates.

mtllib ridge.mtl
g default
v -0.491930 0.455190 -0.553641
v 0.499198 0.455190 -0.553641
v -0.372748 1.434978 -0.691759
v 0.420492 1.434978 -0.691759
v -0.276266 1.354128 -1.634491
v 0.324532 1.354128 -1.634491
v -0.399903 0.354128 -1.634491
v 0.413128 0.354128 -1.634491
v -0.228017 0.888177 -2.526542
v 0.228017 0.888177 -2.526542
v 0.255137 0.602431 -2.477495
v -0.255137 0.602431 -2.477495
v -0.291333 2.146558 -0.670895
v 0.357112 2.146558 -0.670895
v 0.284284 2.142345 -1.331604
v -0.201469 2.142345 -1.331604
v -0.224310 2.719073 -0.914434
v 0.303010 2.719073 -0.914434
v 0.242586 2.552390 -1.538357
v -0.156680 2.552390 -1.538357
v -0.177411 3.101167 -1.513258
v 0.242953 3.101167 -1.513258
v 0.191978 2.721863 -1.833699
v -0.145104 2.721863 -1.833699
v -0.145104 2.909874 -2.503939
v 0.145104 2.909874 -2.503939
v 0.145104 2.730929 -2.566881
v -0.145104 2.730929 -2.566881
vt 0.375000 0.000000
vt 0.625000 0.000000
vt 0.375000 0.250000
vt 0.625000 0.250000
vt 0.375000 0.500000
vt 0.625000 0.500000
vt 0.375000 0.750000
vt 0.625000 0.750000
vt 0.375000 1.000000
vt 0.625000 1.000000
vt 0.875000 0.000000
vt 0.875000 0.250000
vt 0.125000 0.000000
vt 0.125000 0.250000
vt 0.375000 0.500000
vt 0.625000 0.500000
vt 0.625000 0.750000
vt 0.375000 0.750000
vt 0.375000 0.250000
vt 0.625000 0.250000
vt 0.625000 0.500000
vt 0.375000 0.500000
vt 0.375000 0.250000
vt 0.625000 0.250000
vt 0.625000 0.500000
vt 0.375000 0.500000
vt 0.375000 0.250000
vt 0.625000 0.250000
vt 0.625000 0.500000
vt 0.375000 0.500000
vt 0.375000 0.250000
vt 0.625000 0.250000
vt 0.625000 0.500000
vt 0.375000 0.500000
vn 0.000000 0.139587 0.990210
vn 0.000000 0.139587 0.990210
vn 0.000000 0.081922 0.996639
vn 0.000000 0.083486 0.996509
vn 0.000000 0.331813 -0.943345
vn 0.000000 0.331813 -0.943345
vn 0.000000 0.331813 -0.943345
vn 0.000000 0.331813 -0.943345
vn 0.000000 -0.169173 -0.985586
vn 0.000000 -0.169173 -0.985586
vn 0.000000 -0.169173 -0.985586
vn 0.000000 -0.169173 -0.985586
vn 0.000000 -0.999440 -0.033465
vn 0.000000 -0.999460 -0.032857
vn 0.000000 -0.995657 0.093096
vn 0.000000 -0.995657 0.093096
vn 0.992367 0.077148 -0.096203
vn 0.990190 0.078980 -0.115265
vn 0.990398 0.081702 -0.111517
vn 0.991434 0.082735 -0.101066
vn -0.987573 0.113053 -0.109177
vn -0.988191 0.114063 -0.102310
vn -0.986774 0.119582 -0.109443
vn -0.986925 0.116760 -0.111113
vn 0.000000 0.886367 -0.462982
vn 0.000000 0.886368 -0.462983
vn 0.000000 0.886368 -0.462982
vn 0.000000 0.886367 -0.462982
vn 0.984481 0.082698 -0.154782
vn 0.984481 0.082698 -0.154782
vn 0.000000 -0.959254 -0.282544
vn 0.000000 -0.959254 -0.282544
vn -0.986113 0.110909 -0.123612
vn -0.986113 0.110909 -0.123612
vn 0.000000 0.137504 0.990501
vn 0.000000 0.134532 0.990909
vn 0.991179 0.075168 -0.109148
vn 0.990924 0.078482 -0.109135
vn 0.000000 0.358697 -0.933454
vn 0.000000 0.358697 -0.933454
vn 0.000000 0.139936 -0.990161
vn 0.000000 0.134865 -0.990864
vn -0.986612 0.106560 -0.123461
vn -0.987139 0.100870 -0.124028
vn 0.000000 0.623244 0.782027
vn 0.000000 0.623242 0.782029
vn 0.993065 0.022966 -0.115302
vn 0.993061 0.035620 -0.112073
vn 0.000000 -0.625739 -0.780032
vn 0.000000 -0.617982 -0.786192
vn -0.992614 0.030658 -0.117377
vn -0.994511 0.004298 -0.104544
vn 0.000000 0.980240 0.197814
vn 0.000000 0.982316 0.187230
vn 0.995170 -0.019417 -0.096228
vn 0.993960 -0.005751 -0.109590
vn 0.000000 -0.981467 -0.191629
vn 0.000000 -0.978841 -0.204622
vn -0.997035 -0.037539 -0.067176
vn -0.998160 -0.042420 -0.043327
vn 0.000000 0.981863 -0.189591
vn 0.000000 0.981863 -0.189591
vn 0.996155 -0.036151 -0.079809
vn 0.996155 -0.036151 -0.079809
vn 0.000000 -0.999924 -0.012365
vn 0.000000 -0.999924 -0.012365
vn -0.998733 -0.048462 -0.013594
vn -0.998733 -0.048462 -0.013594
s 1
g pCube3
usemtl initialShadingGroup
f 1/1/1 2/2/2 4/4/3 3/3/4
s off
f 25/31/5 26/32/6 27/33/7 28/34/8
f 9/15/9 10/16/10 11/17/11 12/18/12
s 2
f 7/7/13 8/8/14 2/10/15 1/9/16
s 3
f 2/2/17 8/11/18 6/12/19 4/4/20
s 4
f 7/13/21 1/1/22 3/3/23 5/14/24
s off
f 5/5/25 6/6/26 10/16/27 9/15/28
s 3
f 6/6/19 8/8/18 11/17/29 10/16/30
s 2
f 8/8/14 7/7/13 12/18/31 11/17/32
s 4
f 7/7/21 5/5/24 9/15/33 12/18/34
s 1
f 3/3/4 4/4/3 14/20/35 13/19/36
s 3
f 4/4/20 6/6/19 15/21/37 14/20/38
s 5
f 6/6/39 5/5/40 16/22/41 15/21/42
s 4
f 5/5/24 3/3/23 13/19/43 16/22/44
s 1
f 13/19/36 14/20/35 18/24/45 17/23/46
s 3
f 14/20/38 15/21/37 19/25/47 18/24/48
s 5
f 15/21/42 16/22/41 20/26/49 19/25/50
s 4
f 16/22/44 13/19/43 17/23/51 20/26/52
s 1
f 17/23/46 18/24/45 22/28/53 21/27/54
s 3
f 18/24/48 19/25/47 23/29/55 22/28/56
s 5
f 19/25/50 20/26/49 24/30/57 23/29/58
s 4
f 20/26/52 17/23/51 21/27/59 24/30/60
s 1
f 21/27/54 22/28/53 26/32/61 25/31/62
s 3
f 22/28/56 23/29/55 27/33/63 26/32/64
s 5
f 23/29/58 24/30/57 28/34/65 27/33/66
s 4
f 24/30/60 21/27/59 25/31/67 28/34/68
