# This file uses centimeters as units for non-parametric coordinates.

v -1.250000 0.000000 -0.833334
v -1.142159 0.000000 -0.847530
v -1.041667 0.000000 -0.889156
v -0.955371 0.000000 -0.955373
v -0.889156 0.000000 -1.041667
v -0.847531 0.000000 -1.142159
v -0.833333 0.000000 -1.250000
v -1.250000 0.172930 -0.833334
v -1.142159 0.172930 -0.847531
v -1.041667 0.172930 -0.889157
v -0.955372 0.172930 -0.955372
v -0.889157 0.172930 -1.041669
v -0.847531 0.172930 -1.142161
v -0.833334 0.172930 -1.250002
v -1.250001 0.172930 0.833332
v -0.710794 0.172930 0.762344
v -0.208335 0.172930 0.554217
v 0.223136 0.172930 0.223140
v 0.554218 0.172930 -0.208333
v 0.762344 0.172930 -0.710792
v 0.833331 0.172930 -1.249999
v -1.250001 0.000000 0.833333
v -0.710795 0.000000 0.762346
v -0.208334 0.000000 0.554219
v 0.223138 0.000000 0.223139
v 0.554219 0.000000 -0.208331
v 0.762345 0.000000 -0.710793
v 0.833333 0.000000 -1.250000
vt 0.541667 1.000000
vt 0.500000 1.000000
vt 0.500000 0.750000
vt 0.541667 0.750000
vt 0.583333 1.000000
vt 0.583333 0.750000
vt 0.625000 1.000000
vt 0.625000 0.750000
vt 0.666667 1.000000
vt 0.666667 0.750000
vt 0.708333 1.000000
vt 0.708333 0.750000
vt 0.750000 1.000000
vt 0.750000 0.750000
vt 0.500000 0.500000
vt 0.541667 0.500000
vt 0.583333 0.500000
vt 0.625000 0.500000
vt 0.666667 0.500000
vt 0.708333 0.500000
vt 0.750000 0.500000
vt 0.500000 0.250000
vt 0.541667 0.250000
vt 0.583333 0.250000
vt 0.625000 0.250000
vt 0.666667 0.250000
vt 0.708333 0.250000
vt 0.750000 0.250000
vn -0.258819 -0.000003 -0.965926
vn -0.130521 -0.000001 -0.991446
vn -0.130521 -0.000001 -0.991446
vn -0.258819 -0.000003 -0.965926
vn -0.499999 -0.000004 -0.866026
vn -0.258819 -0.000003 -0.965926
vn -0.258819 -0.000003 -0.965926
vn -0.499999 -0.000004 -0.866026
vn -0.707108 -0.000005 -0.707105
vn -0.499999 -0.000004 -0.866026
vn -0.499999 -0.000004 -0.866026
vn -0.707108 -0.000005 -0.707106
vn -0.866028 -0.000005 -0.499995
vn -0.707108 -0.000005 -0.707105
vn -0.707108 -0.000005 -0.707106
vn -0.866028 -0.000005 -0.499995
vn -0.965926 -0.000005 -0.258819
vn -0.866028 -0.000005 -0.499995
vn -0.866028 -0.000005 -0.499995
vn -0.965926 -0.000005 -0.258819
vn -0.991445 -0.000005 -0.130527
vn -0.965926 -0.000005 -0.258819
vn -0.965926 -0.000005 -0.258819
vn -0.991445 -0.000005 -0.130527
vn 0.000000 1.000000 0.000000
vn 0.000000 1.000000 0.000000
vn 0.000000 1.000000 0.000000
vn 0.000000 1.000000 0.000000
vn 0.000000 1.000000 0.000000
vn 0.000000 1.000000 0.000000
vn 0.000000 1.000000 0.000000
vn 0.000000 1.000000 0.000000
vn 0.000000 1.000000 0.000000
vn 0.000000 1.000000 0.000000
vn 0.000000 1.000000 0.000000
vn 0.000000 1.000000 0.000000
vn 0.000000 1.000000 0.000000
vn 0.000000 1.000000 0.000000
vn 0.000000 1.000000 0.000000
vn 0.000000 1.000000 0.000000
vn 0.000000 1.000000 0.000000
vn 0.000000 1.000000 0.000000
vn 0.000000 1.000000 0.000000
vn 0.000000 1.000000 0.000000
vn 0.000000 1.000000 0.000000
vn 0.000000 1.000000 0.000000
vn 0.000000 1.000000 0.000000
vn 0.000000 1.000000 0.000000
vn 0.258819 0.000010 0.965926
vn 0.130526 0.000009 0.991445
vn 0.130526 0.000009 0.991445
vn 0.258819 0.000010 0.965926
vn 0.500000 0.000009 0.866025
vn 0.258819 0.000010 0.965926
vn 0.258819 0.000010 0.965926
vn 0.500000 0.000009 0.866025
vn 0.707106 0.000008 0.707108
vn 0.500000 0.000009 0.866025
vn 0.500000 0.000009 0.866025
vn 0.707106 0.000008 0.707108
vn 0.866025 0.000010 0.500001
vn 0.707106 0.000008 0.707108
vn 0.707106 0.000008 0.707108
vn 0.866025 0.000010 0.500001
vn 0.965926 0.000010 0.258819
vn 0.866025 0.000010 0.500001
vn 0.866025 0.000010 0.500001
vn 0.965926 0.000010 0.258819
vn 0.991445 0.000010 0.130526
vn 0.965926 0.000010 0.258819
vn 0.965926 0.000010 0.258819
vn 0.991445 0.000010 0.130526
s off
f 2/1/1 1/2/2 8/3/3 9/4/4
f 3/5/5 2/1/6 9/4/7 10/6/8
f 4/7/9 3/5/10 10/6/11 11/8/12
f 5/9/13 4/7/14 11/8/15 12/10/16
f 6/11/17 5/9/18 12/10/19 13/12/20
f 7/13/21 6/11/22 13/12/23 14/14/24
f 9/4/25 8/3/26 15/15/27 16/16/28
f 10/6/29 9/4/30 16/16/31 17/17/32
f 11/8/33 10/6/34 17/17/35 18/18/36
f 12/10/37 11/8/38 18/18/39 19/19/40
f 13/12/41 12/10/42 19/19/43 20/20/44
f 14/14/45 13/12/46 20/20/47 21/21/48
f 16/16/49 15/15/50 22/22/51 23/23/52
f 17/17/53 16/16/54 23/23/55 24/24/56
f 18/18/57 17/17/58 24/24/59 25/25/60
f 19/19/61 18/18/62 25/25/63 26/26/64
f 20/20/65 19/19/66 26/26/67 27/27/68
f 21/21/69 20/20/70 27/27/71 28/28/72
