# This file uses centimeters as units for non-parametric coordinates.

mtllib road.mtl
g default
v -1.250000 -0.000000 -0.600000
v -1.250000 -0.000000 0.600000
v -1.250000 0.172930 -0.600000
v -1.250000 0.172930 0.600000
v 1.250000 0.172930 -0.600000
v 1.250000 0.172930 0.600000
v 1.250000 -0.000000 -0.600000
v 1.250000 -0.000000 0.600000
v -1.250000 0.172930 0.488105
v 1.250000 0.172930 0.488105
v 1.250000 -0.000000 0.488105
v -1.250000 -0.000000 0.488105
v -1.250000 0.172930 -0.488105
v 1.250000 0.172930 -0.488105
v 1.250000 -0.000000 -0.488105
v -1.250000 -0.000000 -0.488105
v -1.250000 0.299848 -0.600000
v -1.250000 0.299848 -0.488105
v 1.250000 0.299848 -0.488105
v 1.250000 0.299848 -0.600000
v -1.250000 0.299848 0.488105
v -1.250000 0.299848 0.600000
v 1.250000 0.299848 0.600000
v 1.250000 0.299848 0.488105
vt 0.375000 0.000000
vt 0.625000 0.000000
vt 0.375000 0.250000
vt 0.625000 0.250000
vt 0.375000 0.500000
vt 0.625000 0.500000
vt 0.375000 0.750000
vt 0.625000 0.750000
vt 0.375000 1.000000
vt 0.625000 1.000000
vt 0.875000 0.000000
vt 0.875000 0.250000
vt 0.125000 0.000000
vt 0.125000 0.250000
vt 0.541667 0.250000
vt 0.541667 0.500000
vt 0.541667 0.750000
vt 0.541667 0.000000
vt 0.541667 1.000000
vt 0.458333 0.250000
vt 0.458333 0.500000
vt 0.458333 0.750000
vt 0.458333 0.000000
vt 0.458333 1.000000
vt 0.375000 0.250000
vt 0.458333 0.250000
vt 0.458333 0.500000
vt 0.375000 0.500000
vt 0.541667 0.250000
vt 0.625000 0.250000
vt 0.625000 0.500000
vt 0.541667 0.500000
vn -1.000000 0.000000 0.000000
vn -1.000000 0.000000 0.000000
vn -1.000000 0.000000 0.000000
vn -1.000000 0.000000 0.000000
vn 0.000000 1.000000 0.000000
vn 0.000000 1.000000 0.000000
vn 0.000000 1.000000 0.000000
vn 0.000000 1.000000 0.000000
vn 1.000000 0.000000 -0.000000
vn 1.000000 0.000000 -0.000000
vn 1.000000 0.000000 -0.000000
vn 1.000000 0.000000 -0.000000
vn 0.000000 -1.000000 0.000000
vn 0.000000 -1.000000 0.000000
vn 0.000000 -1.000000 0.000000
vn 0.000000 -1.000000 0.000000
vn 0.000000 0.000000 1.000000
vn 0.000000 0.000000 1.000000
vn 0.000000 0.000000 1.000000
vn 0.000000 0.000000 1.000000
vn -0.000000 0.000000 -1.000000
vn -0.000000 0.000000 -1.000000
vn -0.000000 0.000000 -1.000000
vn -0.000000 0.000000 -1.000000
vn 0.000000 1.000000 0.000000
vn 0.000000 1.000000 0.000000
vn 0.000000 1.000000 0.000000
vn 0.000000 1.000000 0.000000
vn 1.000000 0.000000 -0.000000
vn 1.000000 0.000000 -0.000000
vn 1.000000 0.000000 -0.000000
vn 1.000000 0.000000 -0.000000
vn 0.000000 -1.000000 0.000000
vn 0.000000 -1.000000 0.000000
vn 0.000000 -1.000000 0.000000
vn 0.000000 -1.000000 0.000000
vn -1.000000 0.000000 0.000000
vn -1.000000 0.000000 0.000000
vn -1.000000 0.000000 0.000000
vn -1.000000 0.000000 0.000000
vn 0.000000 1.000000 0.000000
vn 0.000000 1.000000 0.000000
vn 0.000000 1.000000 0.000000
vn 0.000000 1.000000 0.000000
vn -1.000000 0.000000 0.000000
vn -1.000000 0.000000 0.000000
vn 0.000000 0.000000 1.000000
vn 0.000000 0.000000 1.000000
vn 0.000000 0.000000 1.000000
vn 0.000000 0.000000 1.000000
vn 1.000000 0.000000 -0.000000
vn 1.000000 0.000000 -0.000000
vn -0.000000 0.000000 -1.000000
vn -0.000000 0.000000 -1.000000
vn -1.000000 0.000000 0.000000
vn -1.000000 0.000000 0.000000
vn 0.000000 0.000000 1.000000
vn 0.000000 0.000000 1.000000
vn 1.000000 0.000000 -0.000000
vn 1.000000 0.000000 -0.000000
vn -0.000000 0.000000 -1.000000
vn -0.000000 0.000000 -1.000000
vn -0.000000 0.000000 -1.000000
vn -0.000000 0.000000 -1.000000
s 1
g pCube9
usemtl initialShadingGroup
f 1/1/1 16/23/2 13/20/3 3/3/4
s off
f 17/25/5 18/26/6 19/27/7 20/28/8
s 2
f 5/5/9 14/21/10 15/22/11 7/7/12
s 3
f 7/7/13 15/22/14 16/24/15 1/9/16
s 4
f 2/2/17 8/11/18 6/12/19 4/4/20
s 5
f 7/13/21 1/1/22 3/3/23 5/14/24
s off
f 21/29/25 22/30/26 23/31/27 24/32/28
s 2
f 11/17/29 10/16/30 6/6/31 8/8/32
s 3
f 12/19/33 11/17/34 8/8/35 2/10/36
s 1
f 9/15/37 12/18/38 2/2/39 4/4/40
s off
f 13/20/41 9/15/42 10/16/43 14/21/44
s 2
f 15/22/11 14/21/10 10/16/30 11/17/29
s 3
f 16/24/15 15/22/14 11/17/34 12/19/33
s 1
f 13/20/3 16/23/2 12/18/38 9/15/37
f 3/3/4 13/20/3 18/26/45 17/25/46
s off
f 13/20/47 14/21/48 19/27/49 18/26/50
s 2
f 14/21/10 5/5/9 20/28/51 19/27/52
s 5
f 5/5/24 3/3/23 17/25/53 20/28/54
s 1
f 9/15/37 4/4/40 22/30/55 21/29/56
s 4
f 4/4/20 6/6/19 23/31/57 22/30/58
s 2
f 6/6/31 10/16/30 24/32/59 23/31/60
s off
f 10/16/61 9/15/62 21/29/63 24/32/64
