# This file uses centimeters as units for non-parametric coordinates.

v -1.250000 0.000000 0.758283
v 1.250000 0.000000 0.758283
v -1.250000 3.985988 0.758283
v 1.250000 3.985988 0.758283
v -1.250000 3.985988 -0.758283
v 1.250000 3.985988 -0.758283
v -1.250000 0.000000 -0.758283
v 1.250000 0.000000 -0.758283
v 1.250000 3.985988 -0.508227
v -1.250000 3.985988 -0.508227
v 1.250000 3.985988 0.508227
v -1.250000 3.985988 0.508227
v 1.000000 3.985988 -0.758283
v 1.000000 0.000000 -0.758283
v 1.000000 0.000000 0.758283
v 1.000000 3.985988 0.758283
v 1.000000 3.985988 0.508227
v 1.000000 3.985988 -0.508227
v 0.750000 3.985988 -0.758283
v 0.750000 0.000000 -0.758283
v 0.750000 0.000000 0.758283
v 0.750000 3.985988 0.758283
v 0.750000 3.985988 0.508227
v 0.750000 3.985988 -0.508227
v 0.500000 3.985988 -0.758283
v 0.500000 0.000000 -0.758283
v 0.500000 0.000000 0.758283
v 0.500000 3.985988 0.758283
v 0.500000 3.985988 0.508227
v 0.500000 3.985988 -0.508227
v 0.250000 3.985988 -0.758283
v 0.250000 0.000000 -0.758283
v 0.250000 0.000000 0.758283
v 0.250000 3.985988 0.758283
v 0.250000 3.985988 0.508227
v 0.250000 3.985988 -0.508227
v -0.000000 3.985988 -0.758283
v -0.000000 0.000000 -0.758283
v -0.000000 0.000000 0.758283
v -0.000000 3.985988 0.758283
v -0.000000 3.985988 0.508227
v -0.000000 3.985988 -0.508227
v -0.250000 3.985988 -0.758283
v -0.250000 0.000000 -0.758283
v -0.250000 0.000000 0.758283
v -0.250000 3.985988 0.758283
v -0.250000 3.985988 0.508227
v -0.250000 3.985988 -0.508227
v -0.500000 3.985988 -0.758283
v -0.500000 0.000000 -0.758283
v -0.500000 0.000000 0.758283
v -0.500000 3.985988 0.758283
v -0.500000 3.985988 0.508227
v -0.500000 3.985988 -0.508227
v -0.750000 3.985988 -0.758283
v -0.750000 0.000000 -0.758283
v -0.750000 0.000000 0.758283
v -0.750000 3.985988 0.758283
v -0.750000 3.985988 0.508227
v -0.750000 3.985988 -0.508227
v -1.000000 3.985988 -0.758283
v -1.000000 0.000000 -0.758283
v -1.000000 0.000000 0.758283
v -1.000000 3.985988 0.758283
v -1.000000 3.985988 0.508227
v -1.000000 3.985988 -0.508227
v 1.000000 4.243796 0.758283
v 1.000000 4.243796 0.508227
v 1.250000 4.243796 0.758283
v 1.250000 4.243796 0.508227
v 1.000000 4.243796 -0.508227
v 1.000000 4.243796 -0.758283
v 1.250000 4.243796 -0.508227
v 1.250000 4.243796 -0.758283
v 0.500000 4.243796 0.758283
v 0.500000 4.243796 0.508227
v 0.750000 4.243796 0.758283
v 0.750000 4.243796 0.508227
v 0.500000 4.243796 -0.508227
v 0.500000 4.243796 -0.758283
v 0.750000 4.243796 -0.508227
v 0.750000 4.243796 -0.758283
v -0.000000 4.243796 0.758283
v -0.000000 4.243796 0.508227
v 0.250000 4.243796 0.758283
v 0.250000 4.243796 0.508227
v -0.000000 4.243796 -0.508227
v -0.000000 4.243796 -0.758283
v 0.250000 4.243796 -0.508227
v 0.250000 4.243796 -0.758283
v -0.500000 4.243796 0.758283
v -0.500000 4.243796 0.508227
v -0.250000 4.243796 0.758283
v -0.250000 4.243796 0.508227
v -0.500000 4.243796 -0.508227
v -0.500000 4.243796 -0.758283
v -0.250000 4.243796 -0.508227
v -0.250000 4.243796 -0.758283
v -1.000000 4.243796 0.758283
v -1.000000 4.243796 0.508227
v -0.750000 4.243796 0.758283
v -0.750000 4.243796 0.508227
v -1.000000 4.243796 -0.508227
v -1.000000 4.243796 -0.758283
v -0.750000 4.243796 -0.508227
v -0.750000 4.243796 -0.758283
v -1.000000 3.229785 0.508227
v -1.250000 3.229785 0.508227
v -1.000000 3.229785 -0.508227
v -1.250000 3.229785 -0.508227
v 1.000000 3.229785 0.508227
v 1.000000 3.229785 -0.508227
v 1.250000 3.229785 0.508227
v 1.250000 3.229785 -0.508227
v 0.750000 3.229785 0.508227
v 0.750000 3.229785 -0.508227
v 0.500000 3.229785 0.508227
v 0.500000 3.229785 -0.508227
v 0.250000 3.229785 0.508227
v 0.250000 3.229785 -0.508227
v -0.000000 3.229785 0.508227
v -0.000000 3.229785 -0.508227
v -0.250000 3.229785 0.508227
v -0.250000 3.229785 -0.508227
v -0.500000 3.229785 0.508227
v -0.500000 3.229785 -0.508227
v -0.750000 3.229785 0.508227
v -0.750000 3.229785 -0.508227
vt 0.375000 0.000000
vt 0.625000 0.000000
vt 0.375000 0.250000
vt 0.625000 0.250000
vt 0.375000 0.500000
vt 0.625000 0.500000
vt 0.375000 0.750000
vt 0.625000 0.750000
vt 0.625000 0.416667
vt 0.375000 0.416667
vt 0.625000 0.333333
vt 0.375000 0.333333
vt 0.600000 0.500000
vt 0.600000 0.750000
vt 0.600000 0.000000
vt 0.600000 0.250000
vt 0.600000 0.333333
vt 0.600000 0.416667
vt 0.575000 0.500000
vt 0.575000 0.750000
vt 0.575000 0.000000
vt 0.575000 0.250000
vt 0.575000 0.333333
vt 0.575000 0.416667
vt 0.550000 0.500000
vt 0.550000 0.750000
vt 0.550000 0.000000
vt 0.550000 0.250000
vt 0.550000 0.333333
vt 0.550000 0.416667
vt 0.525000 0.500000
vt 0.525000 0.750000
vt 0.525000 0.000000
vt 0.525000 0.250000
vt 0.525000 0.333333
vt 0.525000 0.416667
vt 0.500000 0.500000
vt 0.500000 0.750000
vt 0.500000 0.000000
vt 0.500000 0.250000
vt 0.500000 0.333333
vt 0.500000 0.416667
vt 0.475000 0.500000
vt 0.475000 0.750000
vt 0.475000 0.000000
vt 0.475000 0.250000
vt 0.475000 0.333333
vt 0.475000 0.416667
vt 0.450000 0.500000
vt 0.450000 0.750000
vt 0.450000 0.000000
vt 0.450000 0.250000
vt 0.450000 0.333333
vt 0.450000 0.416667
vt 0.425000 0.500000
vt 0.425000 0.750000
vt 0.425000 0.000000
vt 0.425000 0.250000
vt 0.425000 0.333333
vt 0.425000 0.416667
vt 0.400000 0.500000
vt 0.400000 0.750000
vt 0.400000 0.000000
vt 0.400000 0.250000
vt 0.400000 0.333333
vt 0.400000 0.416667
vt 0.600000 0.333333
vt 0.600000 0.250000
vt 0.625000 0.250000
vt 0.625000 0.333333
vt 0.600000 0.500000
vt 0.600000 0.416667
vt 0.625000 0.416667
vt 0.625000 0.500000
vt 0.550000 0.333333
vt 0.550000 0.250000
vt 0.575000 0.250000
vt 0.575000 0.333333
vt 0.550000 0.500000
vt 0.550000 0.416667
vt 0.575000 0.416667
vt 0.575000 0.500000
vt 0.500000 0.333333
vt 0.500000 0.250000
vt 0.525000 0.250000
vt 0.525000 0.333333
vt 0.500000 0.500000
vt 0.500000 0.416667
vt 0.525000 0.416667
vt 0.525000 0.500000
vt 0.450000 0.333333
vt 0.450000 0.250000
vt 0.475000 0.250000
vt 0.475000 0.333333
vt 0.450000 0.500000
vt 0.450000 0.416667
vt 0.475000 0.416667
vt 0.475000 0.500000
vt 0.400000 0.333333
vt 0.400000 0.250000
vt 0.425000 0.250000
vt 0.425000 0.333333
vt 0.400000 0.500000
vt 0.400000 0.416667
vt 0.425000 0.416667
vt 0.425000 0.500000
vt 0.375000 0.333333
vt 0.400000 0.333333
vt 0.400000 0.416667
vt 0.375000 0.416667
vt 0.600000 0.333333
vt 0.625000 0.333333
vt 0.625000 0.416667
vt 0.600000 0.416667
vt 0.575000 0.333333
vt 0.575000 0.416667
vt 0.550000 0.333333
vt 0.550000 0.416667
vt 0.525000 0.333333
vt 0.525000 0.416667
vt 0.500000 0.333333
vt 0.500000 0.416667
vt 0.475000 0.333333
vt 0.475000 0.416667
vt 0.450000 0.333333
vt 0.450000 0.416667
vt 0.425000 0.333333
vt 0.425000 0.416667
vn 0.000000 0.000000 1.000000
vn 0.000000 0.000000 1.000000
vn 0.000000 0.000000 1.000000
vn 0.000000 0.000000 1.000000
vn 0.000000 1.000000 0.000000
vn 0.000000 1.000000 0.000000
vn 0.000000 1.000000 0.000000
vn 0.000000 1.000000 0.000000
vn 0.000000 0.000000 -1.000000
vn 0.000000 0.000000 -1.000000
vn 0.000000 0.000000 -1.000000
vn 0.000000 0.000000 -1.000000
vn 0.000000 1.000000 0.000000
vn 0.000000 1.000000 0.000000
vn 0.000000 1.000000 0.000000
vn 0.000000 1.000000 0.000000
vn 0.000000 1.000000 0.000000
vn 0.000000 1.000000 0.000000
vn 0.000000 1.000000 0.000000
vn 0.000000 1.000000 0.000000
vn 0.000000 0.000000 -1.000000
vn 0.000000 0.000000 -1.000000
vn 0.000000 0.000000 -1.000000
vn 0.000000 0.000000 -1.000000
vn 0.000000 0.000000 1.000000
vn 0.000000 0.000000 1.000000
vn 0.000000 0.000000 1.000000
vn 0.000000 0.000000 1.000000
vn 0.000000 1.000000 0.000000
vn 0.000000 1.000000 0.000000
vn 0.000000 1.000000 0.000000
vn 0.000000 1.000000 0.000000
vn 0.000000 1.000000 0.000000
vn 0.000000 1.000000 0.000000
vn 0.000000 1.000000 0.000000
vn 0.000000 1.000000 0.000000
vn 0.000000 1.000000 0.000000
vn 0.000000 1.000000 0.000000
vn 0.000000 1.000000 0.000000
vn 0.000000 1.000000 0.000000
vn 0.000000 0.000000 -1.000000
vn 0.000000 0.000000 -1.000000
vn 0.000000 0.000000 1.000000
vn 0.000000 0.000000 1.000000
vn 0.000000 1.000000 0.000000
vn 0.000000 1.000000 0.000000
vn 0.000000 1.000000 0.000000
vn 0.000000 1.000000 0.000000
vn 0.000000 1.000000 0.000000
vn 0.000000 1.000000 0.000000
vn 0.000000 1.000000 0.000000
vn 0.000000 1.000000 0.000000
vn 0.000000 1.000000 0.000000
vn 0.000000 1.000000 0.000000
vn 0.000000 0.000000 -1.000000
vn 0.000000 0.000000 -1.000000
vn 0.000000 0.000000 1.000000
vn 0.000000 0.000000 1.000000
vn 0.000000 1.000000 0.000000
vn 0.000000 1.000000 0.000000
vn 0.000000 1.000000 0.000000
vn 0.000000 1.000000 0.000000
vn 0.000000 1.000000 0.000000
vn 0.000000 1.000000 0.000000
vn 0.000000 1.000000 0.000000
vn 0.000000 1.000000 0.000000
vn 0.000000 1.000000 0.000000
vn 0.000000 1.000000 0.000000
vn 0.000000 0.000000 -1.000000
vn 0.000000 0.000000 -1.000000
vn 0.000000 0.000000 1.000000
vn 0.000000 0.000000 1.000000
vn 0.000000 1.000000 0.000000
vn 0.000000 1.000000 0.000000
vn 0.000000 1.000000 0.000000
vn 0.000000 1.000000 0.000000
vn 0.000000 1.000000 0.000000
vn 0.000000 1.000000 0.000000
vn 0.000000 1.000000 0.000000
vn 0.000000 1.000000 0.000000
vn 0.000000 1.000000 0.000000
vn 0.000000 1.000000 0.000000
vn 0.000000 0.000000 -1.000000
vn 0.000000 0.000000 -1.000000
vn 0.000000 0.000000 1.000000
vn 0.000000 0.000000 1.000000
vn 0.000000 1.000000 0.000000
vn 0.000000 1.000000 0.000000
vn 0.000000 1.000000 0.000000
vn 0.000000 1.000000 0.000000
vn 0.000000 1.000000 0.000000
vn 0.000000 1.000000 0.000000
vn 0.000000 1.000000 0.000000
vn 0.000000 1.000000 0.000000
vn 0.000000 1.000000 0.000000
vn 0.000000 1.000000 0.000000
vn 0.000000 0.000000 -1.000000
vn 0.000000 0.000000 -1.000000
vn 0.000000 0.000000 1.000000
vn 0.000000 0.000000 1.000000
vn 0.000000 1.000000 0.000000
vn 0.000000 1.000000 0.000000
vn 0.000000 1.000000 0.000000
vn 0.000000 1.000000 0.000000
vn 0.000000 1.000000 0.000000
vn 0.000000 1.000000 0.000000
vn 0.000000 1.000000 0.000000
vn 0.000000 1.000000 0.000000
vn 0.000000 1.000000 0.000000
vn 0.000000 1.000000 0.000000
vn 0.000000 0.000000 -1.000000
vn 0.000000 0.000000 -1.000000
vn 0.000000 0.000000 1.000000
vn 0.000000 0.000000 1.000000
vn 0.000000 1.000000 0.000000
vn 0.000000 1.000000 0.000000
vn 0.000000 1.000000 0.000000
vn 0.000000 1.000000 0.000000
vn 0.000000 1.000000 0.000000
vn 0.000000 1.000000 0.000000
vn 0.000000 1.000000 0.000000
vn 0.000000 1.000000 0.000000
vn 0.000000 1.000000 0.000000
vn 0.000000 1.000000 0.000000
vn 0.000000 0.000000 -1.000000
vn 0.000000 0.000000 -1.000000
vn 0.000000 0.000000 1.000000
vn 0.000000 0.000000 1.000000
vn 0.000000 1.000000 0.000000
vn 0.000000 1.000000 0.000000
vn 0.000000 1.000000 0.000000
vn 0.000000 1.000000 0.000000
vn 0.000000 1.000000 0.000000
vn 0.000000 1.000000 0.000000
vn 0.000000 1.000000 0.000000
vn 0.000000 1.000000 0.000000
vn 0.000000 1.000000 0.000000
vn 0.000000 1.000000 0.000000
vn 0.000000 1.000000 0.000000
vn 0.000000 1.000000 0.000000
vn 0.000000 1.000000 0.000000
vn 0.000000 1.000000 0.000000
vn 0.000000 1.000000 0.000000
vn 0.000000 1.000000 0.000000
vn 0.000000 1.000000 0.000000
vn 0.000000 1.000000 0.000000
vn -1.000000 0.000000 0.000000
vn -1.000000 0.000000 0.000000
vn -1.000000 0.000000 0.000000
vn -1.000000 0.000000 0.000000
vn 0.000000 0.000000 1.000000
vn 0.000000 0.000000 1.000000
vn 1.000000 0.000000 0.000000
vn 1.000000 0.000000 0.000000
vn 1.000000 0.000000 0.000000
vn 1.000000 0.000000 0.000000
vn 0.000000 0.000000 -1.000000
vn 0.000000 0.000000 -1.000000
vn 0.000000 0.000000 -1.000000
vn 0.000000 0.000000 -1.000000
vn -1.000000 0.000000 0.000000
vn -1.000000 0.000000 0.000000
vn -1.000000 0.000000 0.000000
vn -1.000000 0.000000 0.000000
vn 0.000000 0.000000 1.000000
vn 0.000000 0.000000 1.000000
vn 0.000000 0.000000 1.000000
vn 0.000000 0.000000 1.000000
vn 1.000000 0.000000 0.000000
vn 1.000000 0.000000 0.000000
vn 1.000000 0.000000 0.000000
vn 1.000000 0.000000 0.000000
vn 0.000000 0.000000 -1.000000
vn 0.000000 0.000000 -1.000000
vn -1.000000 0.000000 0.000000
vn -1.000000 0.000000 0.000000
vn -1.000000 0.000000 0.000000
vn -1.000000 0.000000 0.000000
vn 0.000000 0.000000 1.000000
vn 0.000000 0.000000 1.000000
vn 1.000000 0.000000 0.000000
vn 1.000000 0.000000 0.000000
vn 1.000000 0.000000 0.000000
vn 1.000000 0.000000 0.000000
vn 0.000000 0.000000 -1.000000
vn 0.000000 0.000000 -1.000000
vn 0.000000 0.000000 -1.000000
vn 0.000000 0.000000 -1.000000
vn -1.000000 0.000000 0.000000
vn -1.000000 0.000000 0.000000
vn -1.000000 0.000000 0.000000
vn -1.000000 0.000000 0.000000
vn 0.000000 0.000000 1.000000
vn 0.000000 0.000000 1.000000
vn 0.000000 0.000000 1.000000
vn 0.000000 0.000000 1.000000
vn 1.000000 0.000000 0.000000
vn 1.000000 0.000000 0.000000
vn 1.000000 0.000000 0.000000
vn 1.000000 0.000000 0.000000
vn 0.000000 0.000000 -1.000000
vn 0.000000 0.000000 -1.000000
vn -1.000000 0.000000 0.000000
vn -1.000000 0.000000 0.000000
vn -1.000000 0.000000 0.000000
vn -1.000000 0.000000 0.000000
vn 0.000000 0.000000 1.000000
vn 0.000000 0.000000 1.000000
vn 1.000000 0.000000 0.000000
vn 1.000000 0.000000 0.000000
vn 1.000000 0.000000 0.000000
vn 1.000000 0.000000 0.000000
vn 0.000000 0.000000 -1.000000
vn 0.000000 0.000000 -1.000000
vn 0.000000 0.000000 -1.000000
vn 0.000000 0.000000 -1.000000
vn -1.000000 0.000000 0.000000
vn -1.000000 0.000000 0.000000
vn -1.000000 0.000000 0.000000
vn -1.000000 0.000000 0.000000
vn 0.000000 0.000000 1.000000
vn 0.000000 0.000000 1.000000
vn 0.000000 0.000000 1.000000
vn 0.000000 0.000000 1.000000
vn 1.000000 0.000000 0.000000
vn 1.000000 0.000000 0.000000
vn 1.000000 0.000000 0.000000
vn 1.000000 0.000000 0.000000
vn 0.000000 0.000000 -1.000000
vn 0.000000 0.000000 -1.000000
vn -1.000000 0.000000 0.000000
vn -1.000000 0.000000 0.000000
vn -1.000000 0.000000 0.000000
vn -1.000000 0.000000 0.000000
vn 0.000000 0.000000 1.000000
vn 0.000000 0.000000 1.000000
vn 1.000000 0.000000 0.000000
vn 1.000000 0.000000 0.000000
vn 1.000000 0.000000 0.000000
vn 1.000000 0.000000 0.000000
vn 0.000000 0.000000 -1.000000
vn 0.000000 0.000000 -1.000000
vn 0.000000 0.000000 -1.000000
vn 0.000000 0.000000 -1.000000
vn -1.000000 0.000000 0.000000
vn -1.000000 0.000000 0.000000
vn -1.000000 0.000000 0.000000
vn -1.000000 0.000000 0.000000
vn 0.000000 0.000000 1.000000
vn 0.000000 0.000000 1.000000
vn 0.000000 0.000000 1.000000
vn 0.000000 0.000000 1.000000
vn 1.000000 0.000000 0.000000
vn 1.000000 0.000000 0.000000
vn 1.000000 0.000000 0.000000
vn 1.000000 0.000000 0.000000
vn 0.000000 0.000000 -1.000000
vn 0.000000 0.000000 -1.000000
vn -1.000000 0.000000 0.000000
vn -1.000000 0.000000 0.000000
vn -1.000000 0.000000 0.000000
vn -1.000000 0.000000 0.000000
vn 0.000000 0.000000 1.000000
vn 0.000000 0.000000 1.000000
vn 1.000000 0.000000 0.000000
vn 1.000000 0.000000 0.000000
vn 1.000000 0.000000 0.000000
vn 1.000000 0.000000 0.000000
vn 0.000000 0.000000 -1.000000
vn 0.000000 0.000000 -1.000000
vn 0.000000 0.000000 -1.000000
vn 0.000000 0.000000 -1.000000
vn -1.000000 0.000000 0.000000
vn -1.000000 0.000000 0.000000
vn -1.000000 0.000000 0.000000
vn -1.000000 0.000000 0.000000
vn 0.000000 0.000000 1.000000
vn 0.000000 0.000000 1.000000
vn 0.000000 0.000000 1.000000
vn 0.000000 0.000000 1.000000
vn 1.000000 0.000000 0.000000
vn 1.000000 0.000000 0.000000
vn 1.000000 0.000000 0.000000
vn 1.000000 0.000000 0.000000
vn 0.000000 0.000000 -1.000000
vn 0.000000 0.000000 -1.000000
vn 0.000000 0.000000 -1.000000
vn 0.000000 0.000000 -1.000000
vn 0.000000 0.000000 -1.000000
vn 0.000000 0.000000 1.000000
vn 0.000000 0.000000 1.000000
vn 0.000000 0.000000 1.000000
vn 0.000000 0.000000 -1.000000
vn 0.000000 0.000000 -1.000000
vn 0.000000 0.000000 1.000000
vn 0.000000 0.000000 1.000000
vn 0.000000 0.000000 -1.000000
vn 0.000000 0.000000 1.000000
vn 0.000000 0.000000 -1.000000
vn 0.000000 0.000000 1.000000
vn 0.000000 0.000000 -1.000000
vn 0.000000 0.000000 1.000000
vn 0.000000 0.000000 -1.000000
vn 0.000000 0.000000 1.000000
vn 0.000000 0.000000 -1.000000
vn 0.000000 0.000000 1.000000
vn 0.000000 0.000000 -1.000000
vn 0.000000 0.000000 1.000000
vn 0.000000 0.000000 -1.000000
vn 0.000000 0.000000 1.000000
s 1
f 1/1/1 63/63/2 64/64/3 3/3/4
s off
f 3/3/5 64/64/6 65/65/7 12/12/8
s 2
f 5/5/9 61/61/10 62/62/11 7/7/12
s off
f 10/10/13 66/66/14 61/61/15 5/5/16
s 3
f 108/107/17 107/108/18 109/109/19 110/110/20
s 2
f 13/13/21 6/6/22 8/8/23 14/14/24
s 1
f 16/16/25 15/15/26 2/2/27 4/4/28
s off
f 68/67/29 67/68/30 69/69/31 70/70/32
s 3
f 112/114/33 111/111/34 113/112/35 114/113/36
s off
f 72/71/37 71/72/38 73/73/39 74/74/40
s 2
f 19/19/41 13/13/21 14/14/24 20/20/42
s 1
f 22/22/43 21/21/44 15/15/26 16/16/25
s off
f 23/23/45 22/22/46 16/16/47 17/17/48
s 3
f 116/116/49 115/115/50 111/111/34 112/114/33
s off
f 19/19/51 24/24/52 18/18/53 13/13/54
s 2
f 25/25/55 19/19/41 20/20/42 26/26/56
s 1
f 28/28/57 27/27/58 21/21/44 22/22/43
s off
f 76/75/59 75/76/60 77/77/61 78/78/62
s 3
f 118/118/63 117/117/64 115/115/50 116/116/49
s off
f 80/79/65 79/80/66 81/81/67 82/82/68
s 2
f 31/31/69 25/25/55 26/26/56 32/32/70
s 1
f 34/34/71 33/33/72 27/27/58 28/28/57
s off
f 35/35/73 34/34/74 28/28/75 29/29/76
s 3
f 120/120/77 119/119/78 117/117/64 118/118/63
s off
f 31/31/79 36/36/80 30/30/81 25/25/82
s 2
f 37/37/83 31/31/69 32/32/70 38/38/84
s 1
f 40/40/85 39/39/86 33/33/72 34/34/71
s off
f 84/83/87 83/84/88 85/85/89 86/86/90
s 3
f 122/122/91 121/121/92 119/119/78 120/120/77
s off
f 88/87/93 87/88/94 89/89/95 90/90/96
s 2
f 43/43/97 37/37/83 38/38/84 44/44/98
s 1
f 46/46/99 45/45/100 39/39/86 40/40/85
s off
f 47/47/101 46/46/102 40/40/103 41/41/104
s 3
f 124/124/105 123/123/106 121/121/92 122/122/91
s off
f 43/43/107 48/48/108 42/42/109 37/37/110
s 2
f 49/49/111 43/43/97 44/44/98 50/50/112
s 1
f 52/52/113 51/51/114 45/45/100 46/46/99
s off
f 92/91/115 91/92/116 93/93/117 94/94/118
s 3
f 126/126/119 125/125/120 123/123/106 124/124/105
s off
f 96/95/121 95/96/122 97/97/123 98/98/124
s 2
f 55/55/125 49/49/111 50/50/112 56/56/126
s 1
f 58/58/127 57/57/128 51/51/114 52/52/113
s off
f 59/59/129 58/58/130 52/52/131 53/53/132
s 3
f 128/128/133 127/127/134 125/125/120 126/126/119
s off
f 55/55/135 60/60/136 54/54/137 49/49/138
s 2
f 61/61/10 55/55/125 56/56/126 62/62/11
s 1
f 64/64/3 63/63/2 57/57/128 58/58/127
s off
f 100/99/139 99/100/140 101/101/141 102/102/142
s 3
f 109/109/19 107/108/18 127/127/134 128/128/133
s off
f 104/103/143 103/104/144 105/105/145 106/106/146
f 17/17/147 16/16/148 67/68/149 68/67/150
s 1
f 16/16/25 4/4/28 69/69/151 67/68/152
s off
f 4/4/153 11/11/154 70/70/155 69/69/156
s 7
f 11/11/157 17/17/158 68/67/159 70/70/160
s off
f 13/13/161 18/18/162 71/72/163 72/71/164
s 8
f 18/18/165 9/9/166 73/73/167 71/72/168
s off
f 9/9/169 6/6/170 74/74/171 73/73/172
s 2
f 6/6/22 13/13/21 72/71/173 74/74/174
s off
f 29/29/175 28/28/176 75/76/177 76/75/178
s 1
f 28/28/57 22/22/43 77/77/179 75/76/180
s off
f 22/22/181 23/23/182 78/78/183 77/77/184
s 7
f 23/23/185 29/29/186 76/75/187 78/78/188
s off
f 25/25/189 30/30/190 79/80/191 80/79/192
s 8
f 30/30/193 24/24/194 81/81/195 79/80/196
s off
f 24/24/197 19/19/198 82/82/199 81/81/200
s 2
f 19/19/41 25/25/55 80/79/201 82/82/202
s off
f 41/41/203 40/40/204 83/84/205 84/83/206
s 1
f 40/40/85 34/34/71 85/85/207 83/84/208
s off
f 34/34/209 35/35/210 86/86/211 85/85/212
s 7
f 35/35/213 41/41/214 84/83/215 86/86/216
s off
f 37/37/217 42/42/218 87/88/219 88/87/220
s 8
f 42/42/221 36/36/222 89/89/223 87/88/224
s off
f 36/36/225 31/31/226 90/90/227 89/89/228
s 2
f 31/31/69 37/37/83 88/87/229 90/90/230
s off
f 53/53/231 52/52/232 91/92/233 92/91/234
s 1
f 52/52/113 46/46/99 93/93/235 91/92/236
s off
f 46/46/237 47/47/238 94/94/239 93/93/240
s 7
f 47/47/241 53/53/242 92/91/243 94/94/244
s off
f 49/49/245 54/54/246 95/96/247 96/95/248
s 8
f 54/54/249 48/48/250 97/97/251 95/96/252
s off
f 48/48/253 43/43/254 98/98/255 97/97/256
s 2
f 43/43/97 49/49/111 96/95/257 98/98/258
s off
f 65/65/259 64/64/260 99/100/261 100/99/262
s 1
f 64/64/3 58/58/127 101/101/263 99/100/264
s off
f 58/58/265 59/59/266 102/102/267 101/101/268
s 7
f 59/59/269 65/65/270 100/99/271 102/102/272
s off
f 61/61/273 66/66/274 103/104/275 104/103/276
s 8
f 66/66/277 60/60/278 105/105/279 103/104/280
s off
f 60/60/281 55/55/282 106/106/283 105/105/284
s 2
f 55/55/125 61/61/10 104/103/285 106/106/286
s 7
f 12/12/287 65/65/270 107/108/288 108/107/289
s 8
f 66/66/277 10/10/290 110/110/291 109/109/292
s 7
f 17/17/158 11/11/157 113/112/293 111/111/294
s 8
f 9/9/166 18/18/165 112/114/295 114/113/296
s 7
f 23/23/185 17/17/158 111/111/294 115/115/297
s 8
f 18/18/165 24/24/194 116/116/298 112/114/295
s 7
f 29/29/186 23/23/185 115/115/297 117/117/299
s 8
f 24/24/194 30/30/193 118/118/300 116/116/298
s 7
f 35/35/213 29/29/186 117/117/299 119/119/301
s 8
f 30/30/193 36/36/222 120/120/302 118/118/300
s 7
f 41/41/214 35/35/213 119/119/301 121/121/303
s 8
f 36/36/222 42/42/221 122/122/304 120/120/302
s 7
f 47/47/241 41/41/214 121/121/303 123/123/305
s 8
f 42/42/221 48/48/250 124/124/306 122/122/304
s 7
f 53/53/242 47/47/241 123/123/305 125/125/307
s 8
f 48/48/250 54/54/249 126/126/308 124/124/306
s 7
f 59/59/269 53/53/242 125/125/307 127/127/309
s 8
f 54/54/249 60/60/278 128/128/310 126/126/308
s 7
f 65/65/270 59/59/269 127/127/309 107/108/288
s 8
f 60/60/278 66/66/277 109/109/292 128/128/310
